<svg width="35" height="34" viewBox="0 0 35 34" fill="none" xmlns="http://www.w3.org/2000/svg">
<path fill-rule="evenodd" clip-rule="evenodd" d="M19.3865 18.8666V31.9333C19.3865 32.4284 19.1878 32.9031 18.8341 33.2532C18.4804 33.6033 18.0006 33.7999 17.5004 33.7999C17.0002 33.7999 16.5204 33.6033 16.1667 33.2532C15.813 32.9031 15.6143 32.4284 15.6143 31.9333V18.8666H2.4115C1.91127 18.8666 1.43153 18.67 1.07782 18.3199C0.724105 17.9698 0.525391 17.495 0.525391 17C0.525391 16.5049 0.724105 16.0301 1.07782 15.68C1.43153 15.33 1.91127 15.1333 2.4115 15.1333H15.6143V2.06662C15.6143 1.57155 15.813 1.09675 16.1667 0.746685C16.5204 0.396617 17.0002 0.199951 17.5004 0.199951C18.0006 0.199951 18.4804 0.396617 18.8341 0.746685C19.1878 1.09675 19.3865 1.57155 19.3865 2.06662V15.1333H32.5893C33.0895 15.1333 33.5692 15.33 33.923 15.68C34.2767 16.0301 34.4754 16.5049 34.4754 17C34.4754 17.495 34.2767 17.9698 33.923 18.3199C33.5692 18.67 33.0895 18.8666 32.5893 18.8666H19.3865Z" fill="#686868"/>
</svg>
