<svg width="22" height="23" viewBox="0 0 22 23" fill="none" xmlns="http://www.w3.org/2000/svg">
<path d="M4.45455 13.875C5.81015 13.875 6.90909 12.8117 6.90909 11.5C6.90909 10.1883 5.81015 9.125 4.45455 9.125C3.09894 9.125 2 10.1883 2 11.5C2 12.8117 3.09894 13.875 4.45455 13.875Z" stroke="#686868" stroke-width="2.6" stroke-linecap="round" stroke-linejoin="round"/>
<path d="M17.5454 6.75C18.901 6.75 19.9999 5.68668 19.9999 4.375C19.9999 3.06332 18.901 2 17.5454 2C16.1898 2 15.0908 3.06332 15.0908 4.375C15.0908 5.68668 16.1898 6.75 17.5454 6.75Z" stroke="#686868" stroke-width="2.6" stroke-linecap="round" stroke-linejoin="round"/>
<path d="M17.5454 21C18.901 21 19.9999 19.9367 19.9999 18.625C19.9999 17.3133 18.901 16.25 17.5454 16.25C16.1898 16.25 15.0908 17.3133 15.0908 18.625C15.0908 19.9367 16.1898 21 17.5454 21Z" stroke="#686868" stroke-width="2.6" stroke-linecap="round" stroke-linejoin="round"/>
<path d="M6.59351 12.6643L15.4063 17.4608" stroke="#686868" stroke-width="2.6" stroke-linecap="round" stroke-linejoin="round"/>
<path d="M15.4063 5.53931L6.59351 10.3358" stroke="#686868" stroke-width="2.6" stroke-linecap="round" stroke-linejoin="round"/>
</svg>
